<svg id="Capa_1" data-name="Capa 1" xmlns="http://www.w3.org/2000/svg" viewBox="0 0 492.42 311.99"><defs><style>.cls-1,.cls-2{fill:#5ec0ca;}.cls-2{isolation:isolate;font-size:77.69px;font-family:against-Regular, against;}.cls-3{letter-spacing:-0.03em;}</style></defs><title>logo</title><path class="cls-1" d="M214.57,448.76" transform="translate(-54.58 -183.74)"/><path class="cls-1" d="M214.61,452.64" transform="translate(-54.58 -183.74)"/><path class="cls-1" d="M215,449.65l-1.92-3.75s2,3.9.13,14.14S215,449.65,215,449.65Z" transform="translate(-54.58 -183.74)"/><path class="cls-1" d="M213.85,403.35" transform="translate(-54.58 -183.74)"/><path class="cls-1" d="M213.22,401.89s1.09,3.69,2.83,4.63,1.38-6.72,1.38-6.72v11.89Z" transform="translate(-54.58 -183.74)"/><path class="cls-1" d="M54.58,438.3a36,36,0,0,0,11.3-9.66,71.2,71.2,0,0,0,8.27-14.33q18.16-45.21,32.62-82,6.28-15.61,12.24-30.87t10.84-27.73q4.91-12.46,8.27-20.86c2.25-5.58,3.62-9.1,4.08-10.49a.71.71,0,0,0,.24-.46h1.85l74.36,172.71c3.58,8.24,6.78,43.24,2,43.09s-6.59-15.23-13.09-18.37c-4.06-2-24.85.43-31.37.89q-11.66,0-19.23-5.93a56.41,56.41,0,0,1-13-14.69,126.67,126.67,0,0,1-9.67-18.87,147.86,147.86,0,0,0-9.1-18.52,47,47,0,0,0-11.65-13.64c-4.51-3.49-10.19-5-17-4.54q-3,7.92-5.94,15.28c-1.94,4.88-3.73,9.44-5.37,13.63s-3.12,7.92-4.43,11.19S78.43,410,77.66,412c-2.18,5.76-2.53,11.07-1,16s5.54,8.36,12.24,10.37v1.85c-3.43-.3-6.38-.54-8.86-.7s-4.82-.24-7-.24c-3,0-5.83.09-8.62.24s-6.07.4-9.8.7v-1.9Zm74.59-156.14q-1.86,4.41-5.12,12.93t-7.57,19.36q-4.32,10.83-9.21,22.95t-9.56,24A29.74,29.74,0,0,1,114,365.59a40,40,0,0,1,12.7,14.09q5,9,9.45,18.76,3,6.78,6.41,13.75a61,61,0,0,0,8,12.59,40.12,40.12,0,0,0,10.95,9.2,29.09,29.09,0,0,0,14.69,3.63c3.27,0,5.78-.79,7.57-2.34a11.34,11.34,0,0,0,3.6-5.93,19.32,19.32,0,0,0,.11-8.16,52.14,52.14,0,0,0-2.69-9.43,13,13,0,0,1-.69-1.63Q173.42,385.18,166,367.7t-12.7-29.47q-5.24-12-8.51-19.81T139,304.67c-1.7-4-3.3-7.61-4.78-10.95S131,286.5,129.17,282.16Z" transform="translate(-54.58 -183.74)"/><path class="cls-1" d="M128,436.49h2.6a137.24,137.24,0,0,0,5.52,19.2,78.05,78.05,0,0,0,9.1,17.74,50.17,50.17,0,0,0,13,13,30.17,30.17,0,0,0,17.24,5c9.53,0,17.08-2.12,22.6-6.35a38.87,38.87,0,0,0,12.52-16.91c2.82-7.05,4.32-19.07,5.09-28.3s1.53-15,1.74-25.22V276.33a112.6,112.6,0,0,0-.65-12.85,26.11,26.11,0,0,0-2.92-9.75,16.12,16.12,0,0,0-6.51-6.35q-4.22-2.26-11.38-2.27v-3.25q14.29.64,23.75.81c6.29.1,12.16.15,17.57.15,6.28,0,4.58,0,10.86-.15s14.42-.38,24.4-.81v3.25q-7.17,0-11.39,2.12a15.19,15.19,0,0,0-6.51,6,24.39,24.39,0,0,0-2.92,9.6,109.17,109.17,0,0,0-.65,12.52V384.13c-.44,36.87-.57,64.69-16.41,83.45s-39.25,28.15-70.28,28.15q-22.44,0-50.09-6.83Z" transform="translate(-54.58 -183.74)"/><text class="cls-2" transform="translate(189.13 253.87)"><tspan class="cls-3">e</tspan><tspan x="53.92" y="0">welry</tspan></text><path class="cls-1" d="M174.84,183.74a19.64,19.64,0,0,0-7.62,1.46l-9.75,24.61-.17-.07c2.24,6.92,8.07,12.5,17.54,12.5C199.62,222.24,199.67,183.74,174.84,183.74Z" transform="translate(-54.58 -183.74)"/></svg>