<svg id="Capa_1" data-name="Capa 1" xmlns="http://www.w3.org/2000/svg" viewBox="0 0 572.83 525.66"><defs><style>.cls-1{<fill:none></fill:none>;}.cls-2{fill:#cf8f5a;}.cls-3{fill:none;}</style></defs><title>logo6</title><circle class="cls-1" cx="272.88" cy="280.99" r="232.34"/><path class="cls-2" d="M372.13,465.31" transform="translate(-57.03 -88.6)"/><path class="cls-2" d="M372.16,469.5" transform="translate(-57.03 -88.6)"/><path class="cls-2" d="M372.58,466.27l-2.06-4s2.16,4.21.14,15.24S372.58,466.27,372.58,466.27Z" transform="translate(-57.03 -88.6)"/><path class="cls-2" d="M371.35,416.41" transform="translate(-57.03 -88.6)"/><path class="cls-2" d="M370.67,414.84s1.18,4,3.07,5,1.48-7.23,1.48-7.23v12.8Z" transform="translate(-57.03 -88.6)"/><path class="cls-2" d="M199.82,454.05A38.58,38.58,0,0,0,212,443.63a76,76,0,0,0,8.91-15.44Q240.47,379.5,256,339.84q6.78-16.81,13.18-33.26t11.67-29.87q5.28-13.43,8.92-22.47T294.2,243a.77.77,0,0,0,.25-.51h2l80.07,186c3.85,8.87,7.31,46.58,2.21,46.41s-7.1-16.41-14.1-19.78c-4.38-2.11-26.77.48-33.79,1q-12.56,0-20.71-6.4a61,61,0,0,1-14.06-15.82,137.62,137.62,0,0,1-10.42-20.33,163.43,163.43,0,0,0-9.79-20,50.26,50.26,0,0,0-12.55-14.68Q256,373.22,245,374q-3.27,8.52-6.4,16.44t-5.77,14.68q-2.64,6.78-4.77,12c-1.43,3.52-2.56,6.36-3.39,8.54q-3.53,9.29-1.13,17.19t13.18,11.17v2q-5.53-.51-9.54-.76c-2.68-.16-5.19-.25-7.53-.25-3.18,0-6.28.09-9.29.25s-6.53.42-10.54.76Zm80.32-168.18q-2,4.77-5.52,13.93t-8.16,20.83q-4.65,11.67-9.91,24.73t-10.3,25.85a32.26,32.26,0,0,1,17.58,4.52,43.13,43.13,0,0,1,13.68,15.19q5.39,9.66,10.16,20.21,3.25,7.28,6.91,14.81a65.81,65.81,0,0,0,8.65,13.55,43.4,43.4,0,0,0,11.8,9.92,31.26,31.26,0,0,0,15.82,3.89q5.26,0,8.16-2.51a12.3,12.3,0,0,0,3.88-6.4,20.63,20.63,0,0,0,.13-8.79,57.12,57.12,0,0,0-2.89-10.17,14.3,14.3,0,0,1-.75-1.75Q327.83,396.81,319.8,378t-13.68-31.75q-5.64-12.93-9.16-21.34t-6.28-14.81q-2.76-6.4-5.14-11.8T280.14,285.87Z" transform="translate(-57.03 -88.6)"/><path class="cls-2" d="M278.87,452.09h2.8a145.23,145.23,0,0,0,6,20.67,83.68,83.68,0,0,0,9.81,19.1,53.36,53.36,0,0,0,14,14A32.45,32.45,0,0,0,330,511.3q15.42,0,24.35-6.83a41.93,41.93,0,0,0,13.49-18.21c3-7.59,4.66-20.55,5.49-30.48s1.64-16.18,1.87-27.16v-149a122.37,122.37,0,0,0-.7-13.84,28,28,0,0,0-3.15-10.51,17.28,17.28,0,0,0-7-6.83Q359.8,246,352.1,246v-3.51q15.4.72,25.57.88t18.92.18c6.78,0,4.93-.06,11.71-.18s15.53-.4,26.28-.88V246q-7.71,0-12.26,2.27a16.39,16.39,0,0,0-7,6.49A26.23,26.23,0,0,0,412.15,265a118.82,118.82,0,0,0-.7,13.49V395.68c-.47,39.72-.61,69.67-17.66,89.87s-42.28,30.31-75.68,30.31q-24.18,0-54-7.36Z" transform="translate(-57.03 -88.6)"/><path class="cls-2" d="M329.34,179.88a21.19,21.19,0,0,0-8.21,1.57L310.63,208l-.18-.08c2.42,7.46,8.7,13.48,18.89,13.48C356,221.35,356.06,179.88,329.34,179.88Z" transform="translate(-57.03 -88.6)"/><rect class="cls-3" width="672.83" height="625.66"/></svg>